<svg width="300" height="176" viewBox="0 0 300 176" fill="none" xmlns="http://www.w3.org/2000/svg">
<mask id="mask0_125_2012" style="mask-type:luminance" maskUnits="userSpaceOnUse" x="0" y="0" width="300" height="176">
<path d="M299.75 0H0V175.866H299.75V0Z" fill="white"/>
</mask>
<g mask="url(#mask0_125_2012)">
<path d="M280.101 19.844C268.507 8.25288 253.076 1.29897 236.712 0.290999C220.349 -0.716974 204.181 4.29048 191.252 14.371C179.446 5.19846 164.921 0.217892 149.97 0.214995C135.019 0.212098 120.493 5.18705 108.683 14.355C95.214 3.78625 78.219 -1.24313 61.1675 0.293639C44.1161 1.8304 28.2942 9.81743 16.9319 22.6241C5.56962 35.4308 -0.476182 52.0913 0.0287759 69.2044C0.533735 86.3175 7.55137 102.593 19.649 114.707L60.964 156.028C60.996 156.059 61.028 156.089 61.064 156.121C61.1 156.153 61.11 156.168 61.133 156.191C61.176 156.234 61.222 156.273 61.265 156.316C61.9217 156.966 62.5883 157.599 63.265 158.216C63.613 158.535 63.965 158.844 64.319 159.155C64.6063 159.405 64.895 159.653 65.185 159.898C76.9622 169.877 91.8151 175.5 107.248 175.82C122.682 176.141 137.755 171.141 149.937 161.659C162.866 171.739 179.034 176.747 195.397 175.739C211.761 174.731 227.192 167.777 238.786 156.186L280.102 114.871C292.685 102.26 299.751 85.1722 299.751 67.3573C299.751 49.5424 292.684 32.4551 280.101 19.844ZM149.957 17.716C159.78 17.7097 169.384 20.6178 177.553 26.0721C185.723 31.5264 192.09 39.2817 195.85 48.3565C199.61 57.4313 200.593 67.4176 198.675 77.0513C196.757 86.6851 192.024 95.5333 185.075 102.476L149.957 137.593L114.838 102.476C107.889 95.5333 103.156 86.685 101.238 77.0511C99.3199 67.4172 100.303 57.4309 104.063 48.3561C107.823 39.2812 114.191 31.5259 122.36 26.0717C130.53 20.6175 140.134 17.7095 149.957 17.716ZM58.975 108.674C58.9571 102.149 60.2337 95.6858 62.7307 89.6578C65.2277 83.6298 68.8956 78.1569 73.522 73.556L82.869 64.209C82.4165 73.5518 83.9242 82.886 87.2953 91.6112C90.6664 100.336 95.8263 108.259 102.443 114.871L136.843 149.271C129.423 154.468 120.719 157.529 111.679 158.119C102.64 158.709 93.6113 156.807 85.5786 152.619C77.5459 148.43 70.817 142.118 66.1255 134.368C61.4341 126.619 58.96 117.73 58.973 108.671L58.975 108.674ZM32.042 102.311C23.2515 93.5226 18.0766 81.757 17.5395 69.3385C17.0024 56.92 21.1421 44.7515 29.1409 35.237C37.1397 25.7224 48.416 19.5536 60.7421 17.9491C73.0683 16.3446 85.548 19.4212 95.716 26.571L61.127 61.16C54.8679 67.3851 49.9057 74.7899 46.5276 82.9457C43.1496 91.1015 41.4227 99.8463 41.447 108.674C41.447 109.716 41.4713 110.754 41.52 111.789L32.042 102.311ZM191.275 158.337C181.128 158.361 171.221 155.253 162.906 149.437L197.475 114.871C204.092 108.259 209.251 100.336 212.622 91.611C215.993 82.8859 217.501 73.5518 217.049 64.209L226.396 73.556C233.342 80.5019 238.071 89.3514 239.987 98.9854C241.904 108.619 240.92 118.605 237.16 127.68C233.401 136.755 227.035 144.511 218.868 149.968C210.7 155.425 201.098 158.337 191.275 158.337ZM267.708 102.476L258.395 111.789C258.442 110.755 258.466 109.717 258.468 108.674C258.492 99.8463 256.765 91.1014 253.387 82.9456C250.009 74.7898 245.046 67.3851 238.787 61.16L204.222 26.594C214.408 19.5058 226.879 16.488 239.179 18.1347C251.479 19.7813 262.717 25.9732 270.68 35.4911C278.643 45.009 282.754 57.1632 282.204 69.5608C281.654 81.9583 276.483 93.7007 267.708 102.476Z" fill="white"/>
</g>
</svg>
