<?xml version="1.0" standalone="no"?>
<!DOCTYPE svg PUBLIC "-//W3C//DTD SVG 20010904//EN"
 "http://www.w3.org/TR/2001/REC-SVG-20010904/DTD/svg10.dtd">
<svg version="1.0" xmlns="http://www.w3.org/2000/svg"
 width="149.000000pt" height="148.000000pt" viewBox="0 0 149.000000 148.000000"
 preserveAspectRatio="xMidYMid meet">
<metadata>
Created by potrace 1.16, written by Peter Selinger 2001-2019
</metadata>
<g transform="translate(0.000000,148.000000) scale(0.100000,-0.100000)"
fill="#000000" stroke="none">
<path d="M660 1464 c-329 -58 -556 -256 -636 -554 -24 -88 -24 -281 0 -368 62
-229 225 -415 439 -502 81 -33 91 -25 95 73 l3 76 -68 0 c-108 -1 -157 27
-193 109 -11 24 -38 61 -61 82 -40 36 -45 60 -13 60 33 0 95 -42 124 -85 35
-51 74 -75 122 -75 61 0 79 11 101 59 12 25 23 49 24 52 2 4 -18 10 -44 13
-70 10 -166 60 -207 108 -45 52 -66 114 -73 213 -6 91 5 145 42 199 22 32 24
44 19 94 -4 32 -1 76 5 100 11 39 14 42 45 42 18 0 66 -16 105 -36 71 -35 73
-36 135 -25 34 6 89 11 121 11 32 0 87 -5 121 -11 62 -11 64 -10 135 25 39 20
87 36 105 36 31 0 34 -3 45 -42 6 -24 9 -68 5 -100 -5 -50 -3 -62 19 -94 37
-54 48 -108 42 -199 -7 -99 -28 -161 -73 -213 -41 -48 -137 -98 -206 -108 -27
-3 -48 -8 -48 -10 0 -3 8 -17 18 -31 13 -22 18 -57 22 -176 6 -181 8 -184 97
-147 214 87 377 273 439 502 24 87 24 280 0 368 -86 319 -364 541 -694 555
-48 2 -98 2 -112 -1z"/>
</g>
</svg>
